<svg xmlns="http://www.w3.org/2000/svg" xmlns:xlink="http://www.w3.org/1999/xlink" width="290" height="118" viewBox="0 0 290 118">
  <defs>
    <clipPath id="clip-path">
      <rect id="Rectangle_1" data-name="Rectangle 1" width="290" height="118" transform="translate(100)" fill="#fff" stroke="#707070" stroke-width="1"/>
    </clipPath>
  </defs>
  <g id="Mask_Group_1" data-name="Mask Group 1" transform="translate(-100)" clip-path="url(#clip-path)">
    <g id="Group_4" data-name="Group 4">
      <rect id="logo-bg" width="290" height="155" rx="14" transform="translate(100 -37)" fill="#fff" stroke="#070808" stroke-width="0"/>
      <g id="logo-slogan-normal" transform="translate(-10.491 -80.512)">
        <g id="Group_3" data-name="Group 3">
          <path id="Path_3" data-name="Path 3" d="M151.491,127.868h13.335c7.71,0,13.238,4.475,13.238,12.078,0,6.687-5.528,12.317-15.76,12.317h-2.521v9.624h-8.292Zm8.292,18.093h2.811c5.141,0,6.983-2.647,6.983-5.822,0-3.417-1.406-5.87-5.819-5.87h-3.975Z" fill="#7015a0"/>
          <path id="Path_4" data-name="Path 4" d="M183.618,127.868h8.244v13.81h14.547v-13.81h8.243v34.019h-8.243v-14H191.861v14h-8.244Z" fill="#7015a0"/>
          <path id="Path_5" data-name="Path 5" d="M266.088,126.512a18.024,18.024,0,0,0-1.516,36v-8.131l-6.674,1.685,1.427-3.9a.382.382,0,0,0-.124-.419l-7.785-5.427,2.632-.973a.325.325,0,0,0,.185-.2.317.317,0,0,0,0-.259l-1.895-4.862,4.772,1.121h.013a.313.313,0,0,0,.357-.3l.331-3.027,3.555,4.308a.135.135,0,0,0,.135.049.164.164,0,0,0,.124-.2l-1.575-9.256,3.136,2.29c.024.011.037.024.048.024a.31.31,0,0,0,.418-.172l2.435-6.068,2.424,6.068c.011.013.011.037.024.049a.31.31,0,0,0,.442.1l3.136-2.29-1.575,9.256a.185.185,0,0,0,.05.161c.037.024.074.049.111.037a.152.152,0,0,0,.111-.049l3.542-4.308.331,3.027a.36.36,0,0,0,.135.247.3.3,0,0,0,.246.049l4.761-1.121-1.895,4.862v.013a.346.346,0,0,0,.2.443l2.633.973-7.8,5.427a.382.382,0,0,0-.124.419l1.427,3.914-6.72-1.7v8.136a18.024,18.024,0,0,0-1.459-36Z" fill="#548b35" fill-rule="evenodd"/>
          <path id="Path_6" data-name="Path 6" d="M244.237,155.439H231.56V127.868h-8.244v34.019h25.676A24.422,24.422,0,0,1,244.237,155.439Z" fill="#7015a0"/>
          <path id="Path_7" data-name="Path 7" d="M336.33,127.868h10.619l11.541,34.019h-8.535l-3.249-9.96H335.118l-3.733,9.96h-8.244Zm8.438,18.141-3.444-13.088L337.3,146.009Z" fill="#7015a0"/>
          <path id="Path_8" data-name="Path 8" d="M318.666,161.888l2.394-6.2a13.726,13.726,0,0,1-5.9-3.765l-3.491-3.752a10.22,10.22,0,0,0,5.528-9.191c0-7.6-5.528-11.115-13.238-11.115H290.622v34.019h8.292v-11.74h2.522c.63,0,1.261,0,1.842-.048l3.88,4.475c2.439,2.812,4.906,5.31,8.336,6.727a8.273,8.273,0,0,0,3.172.587Zm-16.939-17.466h-2.813v-10.1h3.977c4.413,0,5.819,1.444,5.819,4.859C308.71,142.4,306.624,144.421,301.727,144.421Z" fill="#7015a0"/>
        </g>
      </g>
    </g>
  </g>
</svg>
